<svg t="1767696135418" class="icon" viewBox="0 0 1152 1024" version="1.1" xmlns="http://www.w3.org/2000/svg" p-id="8306" id="mx_n_1767696135418" width="16" height="16"><path d="M1047.04 636.16V100.608H391.04v117.504h457.472a90.24 90.24 0 0 1 90.368 90.176V636.16h108.032z m-108.096 297.6c0 49.984-40.576 90.24-90.368 90.24H90.432A90.24 90.24 0 0 1 0 933.76V308.352a90.112 90.112 0 0 1 90.432-90.24h196.032V85.12C286.464 38.272 323.2 0 368.96 0H1069.44c22.144 0 43.328 9.152 58.816 25.408 15.168 15.936 23.68 37.376 23.68 59.712v562.944c0 46.912-36.8 85.12-82.496 85.12h-130.56v200.64z m-829.184-17.408h714.368V323.264H109.76v593.088z" fill="#6a6565" p-id="8307"></path></svg>
